# xmcd
#
# Track frame offsets:
#	150
#	12286
#	21646
#	33534
#	43349
#	55513
#	65826
#	77908
#	89294
#	99591
#	110338
#	120172
#	132427
#	145959
#	159208
#	170732
#	182343
#	195425
#
# Disc length: 2767 seconds
#
# Revision: 0
# Processed by: cddbd v1.5.2PL0 Copyright (c) Steve Scherf et al.
# Submitted via: FairStars CD Ripper 1.80
#
DISCID=f10acd12
DTITLE=Jerry Butler - The Soul Of Jerry Butler cd2
DYEAR=2015
DGENRE=Soul
TTITLE0=For Your Precious Love
TTITLE1=Sweet Was The Wine
TTITLE2=Make It Easy On Yourself
TTITLE3=You Go Right Through Me
TTITLE4=The Gift Of Love
TTITLE5=After The Laughter
TTITLE6=Thanks To You
TTITLE7=Butterfly
TTITLE8=The Lights Went Out
TTITLE9=Lost
TTITLE10=I Found A Love
TTITLE11=When Trouble Calls
TTITLE12=The Wicked Man
TTITLE13=A Lonely Soldier
TTITLE14=Love Me
TTITLE15=The Wishing Star (Theme From Taras Bulba)
TTITLE16=O Holy Night
TTITLE17=Silent Night
EXTD=
EXTT0=
EXTT1=
EXTT2=
EXTT3=
EXTT4=
EXTT5=
EXTT6=
EXTT7=
EXTT8=
EXTT9=
EXTT10=
EXTT11=
EXTT12=
EXTT13=
EXTT14=
EXTT15=
EXTT16=
EXTT17=
PLAYORDER=
